<svg id="Layer_1" data-name="Layer 1" xmlns="http://www.w3.org/2000/svg" viewBox="0 0 500 500"><title>faces</title><path d="M100.62,174.2c15.31,0,30-13.46,29.27-29.27S117,115.66,100.62,115.66c-15.31,0-30,13.46-29.27,29.27s12.86,29.27,29.27,29.27Z"/><path d="M367.5,179.46c15.31,0,30-13.47,29.27-29.27s-12.86-29.27-29.27-29.27c-15.31,0-30,13.46-29.27,29.27s12.86,29.27,29.27,29.27Z"/><path d="M101.36,321.73c18.2,28.67,52.65,44.18,84.7,51.63a210.24,210.24,0,0,0,98.53-.84,199.72,199.72,0,0,0,50.93-20.77c10.11-5.84,14.52-20.44,8-30.54S323.8,307,313,313.2c-2.8,1.62-5.64,3.19-8.53,4.66s-7.74,2.68-10.26,4.81c.1-.08,3.95-1.57,1.6-.7-.76.28-1.5.6-2.26.89q-2.26.88-4.55,1.69-5,1.76-10,3.22a182.29,182.29,0,0,1-19.72,4.55l-3.19.52c-.6.1-3.38.45-.24.06,3.32-.4-1.82.21-2.66.29-3.5.37-7,.65-10.51.82a184.68,184.68,0,0,1-20.24-.11c-3.51-.21-7-.55-10.49-.92-4.39-.47,3.88.64-.48-.07-1.87-.31-3.73-.61-5.59-1a179.06,179.06,0,0,1-19.64-4.8c-3.35-1-6.68-2.15-10-3.38-1.52-.57-3-1.19-4.53-1.76-2.36-.9,1.55.6,1.6.68-.36-.54-2.34-1-3-1.32a125.27,125.27,0,0,1-19.66-11,15,15,0,0,0-2.59-1.89c1.08.15,3.07,2.57.78.49-1.38-1.25-2.77-2.46-4.09-3.78-.45-.46-3.33-4.16-3.74-4.1.14,0,2.43,3.48,1.06,1.38-.72-1.11-1.5-2.19-2.21-3.31-6.25-9.85-20.15-14.71-30.55-8-9.85,6.36-14.7,20-8,30.55Z"/></svg>