<svg id="Layer_1" data-name="Layer 1" xmlns="http://www.w3.org/2000/svg" viewBox="0 0 500 500"><title>faces</title><path d="M160.3,114.5c-13.91-5.11-29.68-10.4-44.39-5.22-11.54,4.07-19.91,13.72-25,24.55-11.46,24.23-12.18,56.24,5.41,77.74,9,11,22.29,16.66,36.13,18.84,14.1,2.23,27-.19,37.37-10.43,17.72-17.45,29-45.93,21.41-70.49-8.69-28.26-38.33-39.91-63.79-48.67-4.84-1.67-6.92,6-2.11,7.65,19.35,6.66,41.9,14.49,53.4,32.71,12.1,19.17,6.7,43.4-5,61.37-6.39,9.83-15,19.46-27.36,20.68s-27.15-2.52-37-10C89,197.9,87.47,169,94.42,146.5c3.44-11.14,9.8-22.8,20.62-28.26,13.77-6.94,29.76-1,43.15,3.91,4.81,1.76,6.88-5.9,2.11-7.65Z"/><path d="M380.54,114a80.84,80.84,0,0,0-45.5-3.55c-14.89,3.18-25.81,11.14-31.67,25.35-11.19,27.08-8.81,61.65,9.28,85.16,16.37,21.3,45.26,31.48,70.49,19.93,26.57-12.17,35.3-45.52,33.45-72.36-2.18-31.7-20.73-61.47-51.69-71.81-4.86-1.62-6.94,6-2.11,7.66,23.34,7.8,39.17,28.8,44.23,52.39,5,23.25,1.27,53.52-17.19,70.31-18.67,17-47.83,12.4-65-4.24-19.2-18.66-23.47-47.1-17.74-72.39,3.31-14.58,9.75-26.57,24.9-31.06s31.59-3.36,46.4,2.26c4.78,1.81,6.85-5.86,2.11-7.65Z"/><path d="M90.3,138.13c-5,7.15-8.91,20.84,1.17,25.51,8.64,4,19.8,1.85,23-7.83,2.61-8,2.51-20.63-8.57-20.79C97,134.9,88.93,144,91.18,152.84c2,8,11.26,13.12,19.09,10.42,8.6-3,11.69-16.84,8.4-24.55-3.8-8.9-15.51-7.41-20.35-.32-4.67,6.84-6.23,20,1.54,25.32,9.61,6.55,20.52-5.47,16-15.19-2-4.2-6.61-6.37-11-4.44-5.1,2.25-6.21,7.81-4.87,12.75a4,4,0,0,0,5.83,2.38c7-3.76,5.61-12.85-1.67-15.19-4.87-1.57-7,6.09-2.11,7.65l-.23.68,5.83,2.37c-.1-.35-.66-3.83.75-3.35.81.28.19,3,0,3.5-1.61,4.35-5.12,2.44-5.78-1.13-.7-3.78.45-10.65,4.07-12.72,6.75-3.84,4.82,7.46,4,10.37-1.29,4.9-6.15,6.09-9.89,2.67-3.41-3.12-2.13-8.17,1.77-10.27,6.24-3.36,5.45,5.05,4.52,8.66-1.36,5.24-7.14,6.31-11.8,4.21-5.24-2.36-.41-11.33,1.82-14.53,2.92-4.2-4-8.17-6.86-4Z"/><path d="M318.54,134.06c-9,2.92-14.33,15-13,24,.74,4.9,4.25,8.11,8.36,10.49s10.57,5.5,15.37,3.32c4.21-1.92,5-7.32,5.7-11.32.81-4.93,1.9-11.12-.23-15.86-4.23-9.45-17.87-9.61-25.41-4.47-6.21,4.24-12.24,17.14-5.25,23.37,6.39,5.69,21.16,4.52,24-4.49,2.92-9.28-7.77-17.49-15.85-11.78-7.91,5.6-3.72,16.82,4.91,18.47,4.63.89,10.21-.56,12.46-5,1.91-3.78,2.29-10.51-1.75-13.12-9.31-6-16.73,13.63-5.49,14.12,1.91.08,3.17-1.33,3.83-2.92a12.51,12.51,0,0,0,.92-6.53c-.58-5-8.53-5.08-7.94,0a7.81,7.81,0,0,1-.63,4.42l3.82-2.91-.84,0,2.81,1.16q1.58-.21-1.35-1a10.13,10.13,0,0,1-.33,3c-1,1.42-4,1.68-5.41.66-3.66-2.66,2.05-6.31,3.28-2.49,1.09,3.38-3.47,3.94-5.52,3.81-1.69-.11-4.72-.51-5.66-1.9-1.09-1.6.59-5.6,1.43-7a11.37,11.37,0,0,1,11.38-5.16c6.06.87,6,5.38,5.57,10.41-.2,2.11-.19,5.41-1.21,7.33-1.3,2.43-2.45,1.85-4.95.86-2.18-.86-5.24-2.21-6.83-4-2.28-2.57-1.3-5.69-.52-8.55,1-3.62,2.49-7.95,6.4-9.23,4.84-1.58,2.77-9.24-2.11-7.65Z"/><path d="M151.14,301.55c9.6,13.81,19.79,25.36,35.45,32.33A133.63,133.63,0,0,0,231,344.53a148.17,148.17,0,0,0,88.9-22c4.33-2.71.35-9.58-4-6.86a140.74,140.74,0,0,1-81.63,21.09,128.52,128.52,0,0,1-41.52-8.87,65.92,65.92,0,0,1-19.68-11.88c-5.93-5.38-10.53-12-15.08-18.51-2.89-4.17-9.77-.2-6.85,4Z"/></svg>