<svg id="Layer_1" data-name="Layer 1" xmlns="http://www.w3.org/2000/svg" viewBox="0 0 500 500"><title>faces</title><path d="M165.94,167.25c-21.58,35.06-58.13,58-90.68,81.8-6.51,4.75-4.06,14,4,14.79a488.59,488.59,0,0,0,52,2.41c15.83-.13,32.51.17,47-6.91,9.19-4.47,1.15-18.17-8-13.71-12.66,6.17-29.21,4.77-42.9,4.76-16.09,0-32.16-.84-48.17-2.43l4,14.8c34.85-25.46,73.27-50,96.37-87.5,5.38-8.72-8.35-16.7-13.7-8Z"/><path d="M251.21,86.3a91.68,91.68,0,0,0-39.56,62.49c-1.8,12.56-2.71,28.87,5.92,39.21,7.92,9.49,25.52,14.72,36.51,8,10.39-6.36,13.81-22.72,12-33.93-2.35-14.45-15.47-18-28.26-18-6.17,0-12.61.88-17.76,4.53-6.07,4.31-8.59,11.1-9.21,18.29-.49,5.65-.59,12.58,2.06,17.75,3.72,7.24,11.79,8.43,19.19,8.8,7.8.39,15.87-2.17,20.29-9,3.55-5.48,4.19-15.57.53-21.14-4.16-6.34-13.72-7.4-19.37-2.46a14.56,14.56,0,0,0-2,19.29c2.91,4.06,8.61,5.53,12.46,1.6a22.5,22.5,0,0,0,6.68-14.3c.48-6.32-2-10.35-8-12.5-10.25-3.69-22.68,2.79-22.71,14.46,0,10.15,11.81,17.77,20.8,12.1,9.53-6,6.21-19.12-3.1-22.93-4-1.62-8.73,1.76-9.77,5.55-1.25,4.54,1.56,8.14,5.55,9.76l1,.39-3.5-2c-1.72-1.37,1-3,1.71-3.45.83-1.38,1.62-1.65,2.35-.79a1.58,1.58,0,0,1,.88,1.58c.57.34,2,.47,2.77.92l-3.93-6.85c.34,2.85.14,4.77-1.93,6.88l12.46,1.61c-1-1.4-.37-.25-1.93.71-2.54,1.59-2.66-2.8-4.11-2.12-.08,0,0,2.45,0,2.78-.15,3.05-1.25,3.81-4.43,4.09-2,.18-4-.34-6.07-.37.11,0-2.47-.35-1.6.11,0,0,.24.56-.15,0-1.41-1.95-.57-7.5-.34-9.72.76-7.41,6.19-7.77,12.63-7.67,5.88.1,11.3,0,11.37,7.09,0,4.3-.82,13.17-5.14,15.52s-13.58-1.57-16.31-5.35c-3.73-5.18-3-14.4-2.57-20.42a75.36,75.36,0,0,1,4.41-20.43A74.29,74.29,0,0,1,259.22,100c8.44-5.67.5-19.43-8-13.71Z"/><path d="M126.89,72.82c-9.27,11.25-20.06,22.35-26.63,35.49a73.62,73.62,0,0,0-7.62,39.78c.66,6.71,1.75,13.87,6.44,19.07,5.17,5.73,13.61,6.46,20.84,6.51,6.45,0,13.75-.44,19.69-3.2,6.54-3.05,9.94-9.19,11.48-16s2.49-14.26-2.33-20c-4.64-5.47-11.59-6.7-18.36-7.38-12.71-1.26-30.6-2.47-34.41,13-1.64,6.66-2.76,15.65-1.21,22.42s8.64,9.93,14.9,10.86c12.94,1.93,28.22-6.38,29.4-20.46,1.36-16.21-21.73-24-27.45-7.29-2.67,7.79.54,16.48,9.91,16,8.6-.47,12.17-8.37,12.54-15.92.18-3.75-2.65-6.42-5.83-7.66-9.13-3.56-20.54,1.56-23.71,10.92-4,11.87,8.45,22.22,18.57,13.83,7.87-6.52-3.41-17.7-11.23-11.22l-.87.72,3.51-2-.15-.13,4,1.08c.25,2.73.78,3.52,1.58,2.35a4.72,4.72,0,0,1,.84-.56c1.89,0,1.38-.37,3.24.36l-5.83-7.65a2.93,2.93,0,0,1-.15,1.61q-1,2.61,4.49-1.3l3.93,6.85c0,.51.18-2.26.21-2.22-3,.27-3.91.68-2.88,1.25.27.16.16.07-.31-.26-.86.84-1.61,3.08-3.09,4.19-2.9,2.16-9.23,3.45-11.92.34l2,3.5c-1.1-3.39-.24-8.75.24-12.23.38-2.74,0-4,2.14-4.67,3.27-1,8.5-.32,11.87-.18a40.62,40.62,0,0,1,9.52,1c3.13.91,2.43,1.28,1.91,4.46-.36,2.15-.7,5.84-2.46,7.47-2,1.89-6.65,1.87-9.15,2a42,42,0,0,1-11.2-.29c-5.89-1.23-5.22-11.18-5.2-15.95a58.72,58.72,0,0,1,3.91-20.84c5.34-13.91,16.69-25.19,26-36.51,6.45-7.82-4.72-19.12-11.23-11.23Z"/><path d="M134.53,327.74c29.75,3,62,4.8,91.31-2.35,24.71-6,47.84-21.82,55.7-47H266.23a31.63,31.63,0,0,1,.15,17.6c-2.69,9.87,12.62,14.08,15.3,4.22a47.7,47.7,0,0,0-.14-26c-2.2-7.68-13-7.42-15.31,0-6.81,21.81-28.94,33-49.92,37C203.41,313.75,190.12,314,177,314a421.7,421.7,0,0,1-42.49-2.17c-4.27-.43-7.93,4-7.93,7.94,0,4.65,3.65,7.51,7.93,7.94Z"/><path d="M111.09,9.94a74.89,74.89,0,0,0-6,21c-.78,6.23-1.48,13.7,1.82,19.38,3.52,6.07,10,7.57,16.48,8.19,7.79.75,15.69,1,23.51,1a315.49,315.49,0,0,0,90.3-13.1l-9.76-9.76q-1.46,10.32-2.9,20.66c-.83,6-1.72,12,2.5,17,4,4.73,9.81,5.7,15.63,6.5q10.68,1.45,21.45,1.86c28,1,55.93-3.12,83.59-7.09L338,65.73c-2.69,12.81-5.45,25.6-8.07,38.43-2.3,11.3-2.42,23.25,8.27,30.33,9.38,6.21,22.92,6.86,33.8,6.51,12.85-.41,25.55-3,38.09-5.64l-9-11.66c-16.22,22-32.61,45.32-36.12,73.12-1.59,12.64-.26,26.87,10.92,34.88,10.42,7.46,24.26,5.1,35.82,2.17l-6.11-14.5c-18.19,10-32.05,28.18-35.85,48.7a72.47,72.47,0,0,0,17.43,61.41c6.81,7.64,18-3.62,11.22-11.23-11.25-12.64-16.58-30.76-13-47.43a56.4,56.4,0,0,1,28.26-37.75c8-4.39,2.51-16.68-6.12-14.5-7,1.77-19.3,5.35-24.59-1.78s-2.44-19.79-.4-27.62c5.6-21.48,19.32-39.87,32.29-57.46,4.46-6-2.87-12.94-9-11.66-9.67,2-19.37,4.1-29.24,4.83-8.94.66-19.84,1-28.19-2.81-7.54-3.48-3.07-14.31-1.79-20.42L353.27,70c1.35-6.4-3.7-10.63-9.76-9.76-22.46,3.23-45,6.38-67.73,6.65-10.86.13-22-.16-32.72-2-1.14-.19-2.36-.67-3.5-.76-1.4-.1,0,.74,0,.41.23-2.27.47-4.54.79-6.81l2.38-16.9c.79-5.66-3.36-11.67-9.77-9.77a298.55,298.55,0,0,1-72.9,12.28c-12.11.5-24.63.72-36.69-.71-1.46-.18-2.31-.13-2.89-.92-.94-1.26,0-5.74.08-7.25A52.63,52.63,0,0,1,124.79,18C126.5,14,126,9.44,122,7.09c-3.37-2-9.14-1.1-10.86,2.85Z"/><path d="M75.42,286.34c2.79,24.2-4.69,49.24,3.74,72.82,3.7,10.34,9.87,19.21,19.1,25.34,9.79,6.51,21.74,8.75,33.18,10.31,52.66,7.16,106-.1,158.71,6.74,21.46,2.78,56.85,9.33,58.32,37,.54,10.16,16.42,10.22,15.88,0-1.29-24.24-21.18-40.17-42.92-46.89-24.67-7.62-51.92-8.53-77.56-9-26.49-.48-53,.45-79.49-.81-12.92-.61-26-1.47-38.75-4-9.92-2-20-5.3-26.29-13.74-6.64-8.93-8.39-20.75-8.54-31.58-.21-15.45,2.27-30.81.5-46.24-.49-4.26-3.3-7.94-7.94-7.94-3.91,0-8.43,3.65-7.94,7.94Z"/><path d="M425.69,372.05a585.79,585.79,0,0,0,13.59,63.68c2.68,9.85,18,5.67,15.31-4.22A585.79,585.79,0,0,1,441,367.83c-.66-4.24-6-6.59-9.77-5.54-4.52,1.24-6.2,5.51-5.54,9.76Z"/><path d="M355.71,26.49a186.34,186.34,0,0,0,90.75,20l-7.94-7.93q.86,53.66,1.73,107.33c.16,10.21,16,10.24,15.87,0q-.87-53.67-1.73-107.33c-.06-4.18-3.58-8.1-7.93-7.94a169.79,169.79,0,0,1-82.74-17.87c-9.1-4.58-17.14,9.11-8,13.71Z"/><path d="M436.21,192.22q1.79,46.68.76,93.39c-.23,10.22,15.65,10.22,15.87,0q1-46.7-.75-93.39c-.39-10.18-16.27-10.23-15.88,0Z"/></svg>