<svg id="Layer_1" data-name="Layer 1" xmlns="http://www.w3.org/2000/svg" viewBox="0 0 500 500"><title>faces</title><path d="M209.51,174.27c-.1-6.26-4.8-9.86-9.3-13.54a184.66,184.66,0,0,0-15.43-11.43A138.22,138.22,0,0,0,151.45,133c-22.18-7.19-46.07-6.92-67.36,3-20.6,9.59-35.86,27.87-39.29,50.59-1.88,12.46-1.37,26.49,4.72,37.82C55,234.56,65,240.79,75.38,245c14.35,5.83,29.84,9.49,44.93,12.79a434.4,434.4,0,0,0,50.09,7.87c5.08.51,5-7.43,0-7.94a417.85,417.85,0,0,1-75.74-14.66c-10.32-3-21.43-6.1-30-12.91C55.08,222.55,52,211,51.82,199.2c-.23-21.33,9.6-40.22,27.66-51.66,17-10.77,37.61-13.94,57.25-10.17a115.24,115.24,0,0,1,34.15,12.77,158.6,158.6,0,0,1,15.35,9.77q4.29,3.08,8.37,6.43c2.32,1.91,6.92,4.6,7,7.93.08,5.11,8,5.12,7.93,0Z"/><path d="M280.4,85.06c-14,3.1-25.93,11-37.39,19.29-5.37,3.88-11,7.71-15,13.05s-6.16,11.42-7.93,17.65c-3.49,12.31-7.35,26.9,1.39,38,6.59,8.35,21,18.42,32.11,14.15,10.71-4.11,12.46-19.6,12.8-29.53.42-12.51-6.42-22.34-18.86-25-5.34-1.12-11.75-1.83-17.17-.94-6.12,1-8.22,6-9.46,11.46-2.59,11.42-6,28.28,3.29,37.72,3.85,3.93,9.22,5.6,14.55,6.27s12.5,1.51,17.58-.94c5.67-2.73,6.93-8.74,7.77-14.45.93-6.34,1.1-12.91-.6-19.15-3-10.95-13-20.66-24.92-19.86s-18.92,12.11-19.84,23.1c-1,11.33,5.33,23.83,17.71,25s21-12.71,21.39-23.84-9.72-22.28-21.29-18.37c-10.76,3.65-13.8,18-11.08,27.78,2.93,10.52,15.14,18.82,25.53,12.35,9.12-5.68,10.1-20.19,5.92-29.15-4-8.51-18.52-14.89-22.47-2.73-1.78,5.49-3.31,13.94-1.66,19.57,1.3,4.41,6.4,7.82,10.27,3.95,4.05-4,2.83-13.55,2.32-18.6-.35-3.46-5.57-6-7.39-2a37,37,0,0,0-1.44,28.72,4,4,0,0,0,7.65,0,65.86,65.86,0,0,0,4.13-29.08c-.34-4.12-7-5.79-7.79-1.06A63.45,63.45,0,0,0,239.7,164c.39,5.18,7.34,5,7.94,0l1.65-13.94-7.8,1.06a58.9,58.9,0,0,1,4.55,18c.34,4.11,7,5.8,7.79,1.06a62.87,62.87,0,0,0,.7-15.19l-7.8,1.05c.37,2,3.31,21.45,4.77,21.09l3.05.4-.88-.44c-4.56-2.29-8.58,4.56-4,6.85,5.51,2.77,9.28-1.81,8.8-7.21-.68-7.59-2.72-15.3-4.08-22.8-.78-4.36-8.16-3.41-7.79,1.06a54,54,0,0,1-.41,13.08l7.8,1A65.62,65.62,0,0,0,249.15,149c-1.76-4.18-7.26-3.54-7.8,1L239.7,164h7.94a54.64,54.64,0,0,1,.53-13.52l-7.79-1.05a60.38,60.38,0,0,1-3.85,27h7.65a29.06,29.06,0,0,1,.64-22.6l-7.4-2a55.37,55.37,0,0,1,.34,6.81c0,1,0,2-.13,2.93l-.31,2.82,2.93-.77c.74-.87.15-5,.3-6.36.23-2.22.22-5.66,1.37-7.62,2.19-3.75,6.26.4,7.58,2.89a18,18,0,0,1,1.71,9.85c-.29,3.51-1.39,8.12-4.8,9.92-3.65,1.91-8.27,0-10.72-2.89-4.55-5.45-4.58-15.93.41-21.19,6.71-7.06,14.39,2.52,13.75,9.59-.69,7.59-7.13,18.15-15.88,14.28-14.54-6.41-6.62-36.44,10.19-30.62,8,2.76,12,10.63,12.58,18.62a47.73,47.73,0,0,1-.71,12.05,21.9,21.9,0,0,1-1,4.46c-1.28,3.06-4.09,3.12-7,3.15-6.66.06-15.91.08-19.75-6.46-3.92-6.7-1.8-17.08-.48-24.18a61.92,61.92,0,0,1,1.4-6.35c.8-2.64,1.88-3,4.42-3.28a42,42,0,0,1,11.13.73c8.26,1.53,13.41,6.51,13.75,15.14.25,6.36-.7,16.13-4.33,21.57-5.08,7.65-15.8.32-20.94-3.58-8.82-6.7-10.32-15.22-8.13-25.71,1.75-8.34,3.83-17.88,8.85-24.92,5.47-7.67,15.11-13.19,22.87-18.3,8-5.24,16.35-9.6,25.73-11.68,5-1.11,2.88-8.76-2.11-7.65Z"/><path d="M158.69,55.32A64.25,64.25,0,0,0,123.77,92c-6,16.05-4.54,38.41,13.29,46.21,7.49,3.28,18.42,4,26.28,1.56,8.52-2.68,10.76-10.53,11.34-18.58s2-20.13-3.9-26.81-17.25-7.89-25.62-9c-8.18-1.08-19.38-3-25.88,3.54-5.66,5.73-5.67,15.62-5.79,23.13-.15,8.28,1.47,16.91,7.71,22.86,5.83,5.57,13.91,7.71,21.71,8.62,8.56,1,17.12.89,21-8.08,3.33-7.7,5.69-19.45,4.26-27.82C166.77,99.44,159,96,151.82,94c-7.85-2.26-17.41-3.82-23.77,2.7-2.68,2.75-3.62,6.37-3.84,10.1-.29,5.06-.89,10.82-.11,15.82,1.27,8.16,8.33,13.16,16,14.93,8.39,1.94,17.84.91,24.83-4.39,6.45-4.89,10.28-13.4,8.39-21.45-1.78-7.55-8.23-13-15.23-15.68a42.29,42.29,0,0,0-13.8-2.35c-4-.11-9.25-.62-12.93,1.31s-4.46,5.78-5.17,9.52c-1,5.06-2.26,10.22-2.66,15.37-.58,7.59,3.25,14.43,11,16,17,3.42,24.07-16.7,18.44-29.77-3-7-10.49-10.25-17.46-6.41-8.15,4.49-9.18,14.26-8.2,22.63s9.72,9.63,17,9.07c7.69-.59,14.47-5,16.35-12.75,4-16.59-17.63-27.48-28.73-14.73-5,5.75-5.82,14.66-1.44,21,4.24,6.13,12.46,9,19.26,5.3s9.17-12.21,4.5-18.57a11,11,0,0,0-17.05-1.18c-3.74,3.94-5.53,14.08,1.44,16,8,2.23,10.12-14,9-19a6.18,6.18,0,0,0-6.57-4.77c-4.36.26-6.3,4-7.38,7.74-2.18,7.5-2.7,17.8,5.28,22.14,6.43,3.49,15.17-1.15,14.43-8.83l-7.39,2a11.46,11.46,0,0,0,10.22,5.44c3.74-.08,5.66-5.54,2-7.39-13.89-7-31.8-16.8-29.82-35.09.31-2.85-3.66-5.15-6-3.42l-5.63,4.2L122.64,94c4.06-11.51,11.24-23.65,21.78-30.33s23.39-7.09,35.4-7.55c4.42-.17,5.46-6.54,1.06-7.8-21.84-6.24-38.77,11-51.36,26.29-3.23,3.91,2.35,9.56,5.61,5.61C145.7,67.37,160,50.58,178.77,56l1-7.8c-13.88.54-28.94,1.31-40.75,9.53C127.46,65.76,119.61,78.73,115,91.86c-1.09,3.1,3.07,6.55,5.83,4.49l5.63-4.21-6-3.43c-2.3,21.23,17.4,33.67,33.76,41.94l2-7.39a3.12,3.12,0,0,1-3.37-1.51c-2-2.92-7.8-2.27-7.39,2,.44,4.6-4.43.52-5-1.38-.89-2.86.44-5.29.46-8.07a3.81,3.81,0,0,0-1-4.72,27.47,27.47,0,0,1-.37,4.15,15.91,15.91,0,0,1-2.38,6.84l3.43-2c3.35-.14-.08.82,1.33-.8.58-.67.58-1.61,1.33-2.22,2-1.67,4.25-.5,5.19,1.68,2.55,5.92-6,7.92-9.7,4.91-7.92-6.49.28-19.31,9.58-15.2a8.42,8.42,0,0,1,4.37,10.79c-1.81,5-7.3,6-12,5.66-1.35-.09-4.4,0-5.43-1.1s-.41-5.42-.34-6.84c.2-3.67,3.42-12.36,8.8-9.11,3.18,1.92,3.65,8.38,3.36,11.6-.39,4.24-2.46,8.7-6.85,9.92-12.8,3.56-7.77-14.05-6.59-20.34.44-2.34.34-5,2.77-5.83,2-.72,5.79-.22,7.86-.15,5,.14,10.16.86,14.5,3.5,9.23,5.6,9,17.43-.4,22.9-6.9,4-22.43,4.1-26-4.8-1.63-4-.25-9.8-.23-14.07,0-5.9,2.55-9.35,8.72-9.28,4.48,0,9.62,1.65,13.73,3.42,5.76,2.49,6.19,6.44,5.63,12.26a66.72,66.72,0,0,1-2.92,15.08c-1,3-2.06,5-5.42,5.46a29.52,29.52,0,0,1-6.83-.25c-8.26-.74-18-3.19-21.73-11.45-1.85-4-2-8.74-1.85-13.1s.07-9.57,1.7-13.75c2-5,6.76-5.31,11.52-5.14a101.67,101.67,0,0,1,17.72,2.25c4.07.87,9.58,1.64,12.42,5,3.25,3.88,2.3,11.18,2.2,15.9s.49,13-4.26,15.9c-4.07,2.48-11,1.77-15.49,1.26-12.3-1.39-19-11.48-18.92-23.38.19-20.86,15.85-39.31,34.37-47.14,4.69-2,.64-8.82-4-6.86Z"/><path d="M160.74,312.44c55.71,19.78,118.36-2,150.11-51.73,2.75-4.31-4.11-8.3-6.86-4-29.93,46.84-88.83,66.65-141.14,48.07-4.83-1.71-6.9,6-2.11,7.66Z"/><path d="M121.54,280.16a100.76,100.76,0,0,0,14.24,89.07c9.12,12.57,20.55,23.16,32.74,32.69,12.69,9.92,26.44,18.84,37,31.2,12.54,14.71,18.06,33.75,23.39,51.94,1.43,4.89,9.09,2.81,7.65-2.11-4.36-14.91-8.85-30.08-16.86-43.52S200,415.89,187.6,406.5c-25.15-19.13-50.65-39.19-59.48-71a93.42,93.42,0,0,1,1.07-53.19c1.55-4.88-6.11-7-7.65-2.11Z"/><path d="M380.37,129.58c.13-3,5.66-4.4,7.76-5.18q5.16-1.89,10.47-3.29A116.07,116.07,0,0,1,421,117.43c6.51-.42,14.36-1,19.11,4.36,4,4.53,5,11.35,5.72,17.12,1.31,11,3.14,26.23-6.17,34.43-5.23,4.61-12.82,6.92-19.36,8.93a110.89,110.89,0,0,1-22.9,4.42c-5.06.43-5.1,8.37,0,7.93,14.42-1.24,30-4.51,42.64-11.88,11.38-6.62,14.8-18.8,14.64-31.27-.15-11-.81-24.84-7.81-33.88-8.62-11.12-24.7-8.71-36.92-6.9a121,121,0,0,0-25.61,6.7c-5.79,2.23-11.58,5.3-11.88,12.19-.22,5.11,7.72,5.1,7.94,0Z"/><path d="M389.26,148.55l27.38-8.31c4.88-1.48,2.8-9.14-2.11-7.65l-27.39,8.31c-4.87,1.47-2.79,9.14,2.12,7.65Z"/><path d="M393.12,227.15c4.49,32.61-6.37,64.65-16.64,95.12-10.55,31.29-19.87,62.9-24.35,95.7a307.83,307.83,0,0,0-2.73,55.28c.23,5.09,8.17,5.11,7.94,0-1.5-33.85,3.37-67.48,11.85-100.2,8.3-32.06,21.6-62.73,28.71-95.08,3.84-17.47,5.32-35.16,2.88-52.93-.7-5-8.34-2.89-7.66,2.11Z"/><path d="M386.92,97.58c-5.69,7.38-15.72,9.41-24.48,10.35-5.25.57-11.19,1.49-16.42.47-5.44-1.05-9.54-4.9-13.14-8.86-14.27-15.69-21.25-36.41-28-56.12-1.05-3.1-5.52-4.09-7.25-1-9.08,16.43-35.06,10.59-49.8,7.53-13.75-2.86-34.15-8.08-39.39-23.21-1.9-5.49-1.42-13.69-9.84-12.56-3.79.51-7.7,3.35-11.2,4.8A105.81,105.81,0,0,1,174,23.55a107.26,107.26,0,0,1-27,3.65c-7.54.05-18.14.63-23.92-5-1.71-1.67-5.09-1.54-6.24.81C111.2,34.68,105.12,47.8,93.74,55c-5.26,3.35-11.69,5.5-18,4.85S64.44,54,57.86,54.51c-5.06.39-5.11,8.33,0,7.94,4-.31,7.4,2.8,11.11,4a28.66,28.66,0,0,0,9.73,1.41,38,38,0,0,0,19-6c12.68-8,19.67-21.89,26-34.93l-6.23.81c9.45,9.26,27.15,8,39.25,6.86a118,118,0,0,0,21.9-4.15,112.78,112.78,0,0,0,10.87-3.8q2.12-.87,4.2-1.8c.63-.28,5-3,5.72-2.6s1.61,7.33,2,8.35a28.52,28.52,0,0,0,4.16,7.06,44.1,44.1,0,0,0,14.44,11.45c13.27,6.9,28.66,9.62,43.38,11.22,14.95,1.63,32.84,1,41-13.89l-7.25-.95c7.7,22.62,16.21,49.53,35.67,65,9.76,7.77,21.78,6.44,33.43,4.83,10.72-1.49,20.62-5,27.4-13.8,3.12-4-3.77-8-6.85-4Z"/><path d="M60.89,53.93c-10.42-2-19.26,7.75-25.8,14.61A113.69,113.69,0,0,0,15.82,96l7.26,1a180,180,0,0,1-4.24-28.57c-.58-8.95-1.94-20.43,1.39-28.95,3.16-8.09,12.63-12.41,20.32-15C49.08,21.43,58,20.06,66.9,18.7c5-.77,2.89-8.42-2.11-7.65-17.08,2.61-43.09,6-51.34,24-4.17,9.08-3.18,20.76-2.7,30.48A194,194,0,0,0,15.42,99c.74,3.24,5.73,4,7.26.95a103.8,103.8,0,0,1,23.4-31.07c3.14-2.86,8-8.22,12.7-7.3,5,1,7.12-6.69,2.11-7.66Z"/><path d="M254.11,32.72c8.44-7.13,20.66-7.8,31.18-8.85,11.18-1.12,22.9-1.57,33.27,3.43,4.58,2.21,8.61-4.63,4-6.85-12.31-5.94-25.66-5.76-39-4.35-12.43,1.33-25.19,2.64-35.1,11-3.91,3.3,1.73,8.89,5.61,5.61Z"/><path d="M362.71,94.23c6.63-1.61,12.8-5.4,18.9-8.37l21.3-10.36c4.59-2.23.57-9.08-4-6.85l-19.52,9.49c-6,2.94-12.24,6.85-18.78,8.44-5,1.2-2.86,8.86,2.11,7.65Z"/></svg>