<svg id="Layer_1" data-name="Layer 1" xmlns="http://www.w3.org/2000/svg" viewBox="0 0 500 500"><title>faces</title><path d="M84.42,180.64C89.5,173,99.31,170,108.1,169.75c13.07-.42,25.63,4.66,37.78,9.22,14.26,5.35,28.4,9.48,43.62,10.93,11.87,1.14,26.75-.55,32.52-12.71,2.41-5.08,1.41-11.24-3.74-14.25-4.54-2.65-11.83-1.37-14.25,3.74-.7,1.47-.86,1.61-1.91,2a17,17,0,0,1-6.33.81,90.59,90.59,0,0,1-20-2.71c-14.28-3.31-27.53-9.7-41.55-13.89-23.83-7.12-52.89-5.32-67.82,17.26-7.42,11.22,10.62,21.67,18,10.52Z"/><path d="M48.42,188.87c25,17.78,52.86,33.44,84.05,36.07,26.83,2.26,56.31-6.77,73.57-28.26,3.53-4.38,4.29-10.45,0-14.73-3.64-3.65-11.19-4.41-14.73,0C176.77,200,153.47,206.23,131,204c-26.61-2.68-50.8-18-72.08-33.09-4.59-3.26-11.59-.82-14.25,3.74-3,5.22-.86,11,3.74,14.25Z"/><path d="M55.29,147.72a164.16,164.16,0,0,1,90.33-20.78c16.14,1,31.34,5.14,46.81,9.55,16.07,4.58,32.49,8.08,49.18,5.15,15.52-2.73,30.89-11.85,37.69-26.51,2.37-5.1,1.44-11.23-3.74-14.25-4.5-2.64-11.87-1.39-14.25,3.73-12.62,27.21-49.66,15.7-71.22,9.51-31.31-9-63.49-10.86-95.4-3.73a182.7,182.7,0,0,0-49.91,19.34c-11.67,6.6-1.19,24.61,10.51,18Z"/><path d="M73.71,316.12a324.71,324.71,0,0,0,188.53,72.05c13.41.64,13.38-20.2,0-20.83-62.9-3-124.8-26.3-173.79-65.95-4.37-3.54-10.46-4.27-14.74,0-3.65,3.66-4.39,11.18,0,14.73Z"/><path d="M266.49,13.91l1.23,370.92.35,105.69c0,13.41,20.88,13.43,20.84,0l-1.24-370.91-.35-105.7c0-13.4-20.88-13.43-20.83,0Z"/></svg>