<svg id="Layer_1" data-name="Layer 1" xmlns="http://www.w3.org/2000/svg" viewBox="0 0 500 500"><title>faces</title><path d="M325.61,106.78c-24.94-.2-52.69.43-72.2,18.25-17,15.57-24.08,41.18-20.87,63.66,1.8,12.65,8.58,20.08,20.93,23.09,13.73,3.34,28.65,5.86,42.52,1.9,12.66-3.61,23.48-11.9,33.82-19.75,10.07-7.65,19.93-16.09,26.34-27.19,6.57-11.37,10.68-28.37,5.84-41.15-2.69-7.08-10.11-8.42-16.61-10.36l-25.66-7.67c-4.9-1.46-7,6.2-2.11,7.66l18.33,5.47,8.25,2.47c2.88.86,8.09,1.56,9.93,4.24,2.53,3.69,1.85,10.86,1.51,15.09a48.19,48.19,0,0,1-5.15,18.07c-5,9.73-13.08,17.35-21.56,24.1-8.74,7-18,14.16-28.22,18.84-11.84,5.44-24.66,4.78-37.16,2.34-5-1-11-1.71-15.47-4.28-4.92-2.81-6.8-8.18-7.66-13.49-3.11-19.42,2.92-41.93,17-55.91,17.77-17.61,44.83-17.63,68.18-17.44,5.1,0,5.11-7.9,0-7.94Z"/><path d="M146.67,61.64c-22.65,6.62-43.48,19-56.73,39-12.07,18.25-18.62,46.95-6.94,67,6.23,10.69,18.85,13.22,30.33,13.77a72.62,72.62,0,0,0,35.9-7.64c10.3-5.18,19.57-13.24,25.14-23.42,5.78-10.56,7.48-22.66,8-34.53.53-12.55,1.76-27.68-6.4-38.23C167.51,66.68,151.8,61.42,139,57.79c-4.92-1.39-7,6.26-2.11,7.66,10.15,2.88,21.74,6.68,29.78,13.82,8.33,7.41,8,18.63,7.88,28.9-.12,10.58-.54,21.4-4.09,31.47A47.22,47.22,0,0,1,152,163a63.13,63.13,0,0,1-29.88,10.36c-9.58.79-24.26.71-30.81-7.59-6-7.64-6.64-19.56-5.91-28.86a68.43,68.43,0,0,1,9.66-29.49c11.85-19.78,32.08-31.76,53.72-38.1,4.89-1.43,2.81-9.09-2.11-7.65Z"/><path d="M98.45,97.66c-1.48,5.66-2.42,12.18,2.11,16.78,4,4.06,9.79,3.51,14.06.25,8.17-6.26,12-23.31-.77-27-10.94-3.19-19.41,12.32-12.1,20.43,6.83,7.58,20.78,2.52,17.9-8.37-1.33-5-6.61-8.25-11.53-6-4.66,2.15-7.1,8.5-3.84,12.8,1.54,2,4.22,2.75,6.24.81a9.37,9.37,0,0,0,3-6.67c.37-5.09-7.57-5.07-7.94,0l-.65,1,6.24.81c-.61-.8,0-2.2.72-1.07.81,1.36-.32,2.41-1.58,2.52-5.09.45-3.78-8.72.7-8.68,6.07.07,2.39,9.22.3,11.65-1.42,1.66-3.83,3.67-5.56,1.28s-.24-6.07.39-8.47c1.29-4.94-6.36-7-7.66-2.11Z"/><path d="M268.2,125.8c-11-.22-22.79,12.48-16.59,23.52,2.85,5.09,9.63,5.8,14.84,4.81a16.94,16.94,0,0,0,12.76-10.07c4.22-10.68-4.88-22.88-16.56-18.92-10.48,3.56-9.76,19.75,1.18,22,2.61.55,6.13-1.86,4.88-4.88-.49-1.19-.68-2.41-1.13-3.59-.11-.29-1.23-2.5-1.22-2,.07,5.1,8,5.11,7.94,0-.07-4.87-5-7.64-9.44-6.18-6,2-5.81,9-3.8,13.89l4.88-4.89c-4.31-.9-3.67-6.92.76-7.16,5.76-.32,7.16,6.81,4.11,10.65-2.53,3.19-12.77,6.44-12.74-.07,0-5.31,5.12-9.31,10.13-9.21s5.11-7.83,0-7.94Z"/><path d="M119.8,191.18Q95.64,208.12,72.13,226,61,234.5,49.93,243.22c-5.44,4.31-11.14,9.77-10,17.37,2.13,14.59,24.62,17.92,35.82,20.83a464.56,464.56,0,0,0,55.62,10.47c21.54,2.86,43.21,4.67,64.86,6.47,5.09.42,5.06-7.52,0-7.94-33.49-2.77-67.09-5.55-100-12.39-8-1.66-15.92-3.55-23.77-5.73-6.89-1.91-15.15-3.46-21-7.82C44,259,50.29,253,55.54,248.83q10.59-8.42,21.37-16.58Q100,214.69,123.81,198c4.15-2.91.19-9.79-4-6.85Z"/><path d="M145.6,339.42a261.8,261.8,0,0,0,112.75-18c4.69-1.87,2.65-9.55-2.11-7.66A256.17,256.17,0,0,1,145.6,331.49c-5.1-.32-5.08,7.62,0,7.93Z"/><path d="M141,334.88a889.05,889.05,0,0,0,83.27,67.44,4,4,0,0,0,5.43-1.43,549.88,549.88,0,0,0,31.22-81.12c1.45-4.91-6.21-7-7.66-2.11a537.22,537.22,0,0,1-30.41,79.23l5.43-1.43a869.89,869.89,0,0,1-81.67-66.19c-3.76-3.45-9.39,2.15-5.61,5.61Z"/><path d="M188.75,370.24Q202.49,365,216.34,360c4.3-1.55,8.62-3.09,12.93-4.6,4.12-1.44,10.47-5.09,14.86-4.57l-2.81-1.16c4.93,3.85-7.26,17.79-9.52,20.92l-7.23,10c-1,1.43-2.27,4-3.86,4.84-2.51,1.36-4.63-.22-6.47-1.75-2.89-2.4-5.63-5-8.32-7.66a48.9,48.9,0,0,1-4.64-4.69c-2-2.64-1.38-2.91,1.22-4.49,7-4.24,14.93-7.46,22.46-10.55l-2.11-7.66a183.14,183.14,0,0,0-29.5,15.6c-2.61,1.71-2.63,6.59,1,7.25a33.12,33.12,0,0,0,21.2-2.84l-4-6.86-11.43,6.38,4.81,6.24a110.16,110.16,0,0,1,34.86-21.11L236.67,346l-26.59,20.49c-3.62,2.8-1.51,7.91,3.06,7.26a41.5,41.5,0,0,0,19.43-8.12l-5.43-5.43c-3.51,5.53-9.83,15-17.48,10.11-4.33-2.79-8.16,4-4,6.86,7.34,5.07,17.65,2.46,22.05-5.18l-7.39-2a46,46,0,0,1,.08,7.33c-.24,3-1.67,6.44.68,1.34a60.45,60.45,0,0,1,6.17-10.2c.33-.46,8.24-9.59,8.35-9.43-2.2-3.14-3,4-3.28,4.72a30.53,30.53,0,0,1-3.23,6.56l6.85,4a89.56,89.56,0,0,0,5.6-13.65c1.15-3.64-4.07-6.94-6.63-3.86l-7.54,9.06c-3.24,3.9,2.34,9.54,5.62,5.61l7.53-9.06-6.63-3.86a77.56,77.56,0,0,1-4.8,11.76c-2.31,4.54,4.11,8.35,6.85,4,3.15-5,9.71-18.5,1.72-22.55-4.09-2.08-7.46,1.31-10.1,4A79.07,79.07,0,0,0,218,368c-3.86,6.05-10.81,18.83-.2,22.45,11,3.75,10.94-14.23,10.45-20.44-.29-3.75-5.31-5.62-7.39-2a7.61,7.61,0,0,1-11.2,2.32l-4,6.86c11.85,7.65,22.41-3.63,28.34-13,2-3.18-2.2-7.89-5.43-5.43A36.91,36.91,0,0,1,211,366.12l3.06,7.26,26.59-20.5c3.19-2.45,1.58-9-3.06-7.25a120.52,120.52,0,0,0-38.36,23.14c-3.44,3.07,1,8.39,4.81,6.24l11.43-6.38c4.51-2.52.54-9.05-4-6.86a24,24,0,0,1-15.08,2.05l.94,7.25A173.17,173.17,0,0,1,225,356.28c4.62-1.95,2.63-9.61-2.11-7.66-8.58,3.52-17.79,7.05-25.61,12.08-7.44,4.78-6.48,11.09-.92,16.92,3.47,3.63,7.12,7.1,10.89,10.42,2.54,2.24,5.22,4.72,8.54,5.7,8.46,2.52,13.16-5.7,17.34-11.46,5.37-7.4,12.61-15,15.72-23.77,1.79-5,2.33-14.5-4.68-15.59-4.28-.66-9.3,2.18-13.26,3.56q-7.41,2.58-14.8,5.23-14.76,5.3-29.44,10.87c-4.73,1.8-2.67,9.47,2.12,7.66Z"/><path d="M93.24,305.58c-2.38,36.5,3.38,78.36,33.32,103.06,15,12.38,33.5,19.14,52,24.51,22.53,6.56,45.19,12.54,67.56,19.67q19,6.07,37.88,12.77c6.45,2.28,28.67,7.7,24.18,18.42-2,4.71,5.7,6.76,7.65,2.11,8-19.15-26.6-27.14-38-31.09q-35-12.15-70.69-22.19c-19.95-5.62-40.72-10.07-59.24-19.68-17.83-9.26-31.34-23.63-38.73-42.38-8.14-20.62-9.38-43.3-8-65.2.33-5.1-7.6-5.08-7.93,0Z"/><path d="M409.8,172c4.93-13.5,12.84-28.67,24.29-37.79,5.07-4.05,13.5-7,18.93-1.82,4.72,4.53,5.27,14,6.2,20.08,4.67,30.24.77,62.55-11.85,90.51-6.65,14.74-18.55,29.94-36.6,27.54-5-.67-5,7.27,0,7.94,38.24,5.09,52.48-48.63,56.46-76.74a173.79,173.79,0,0,0-1.1-55.79c-1.36-7.4-2.86-16-9.37-20.71-5.89-4.28-13.94-4.35-20.46-1.56-8.33,3.57-14.28,11-19.46,18.13a114.77,114.77,0,0,0-14.69,28.1c-1.76,4.8,5.91,6.87,7.65,2.11Z"/><path d="M402.82,301.38a703.25,703.25,0,0,1-4.47,190.14c-.81,5,6.84,7.14,7.65,2.11a710.73,710.73,0,0,0,4.76-192.25c-.56-5-8.5-5.08-7.94,0Z"/><path d="M128.3,49.16l51.8-28.3c1.72-.94,3.43-2,5.18-2.83,3.44-1.7,3.55.51,4.56,3.38,1.52,4.38,2.95,8.8,4.43,13.19l9.5,28.27c2,6.06,3.78,14.26,10.27,17.12,5.86,2.58,11.26-1.12,14.78-5.64,11.07-14.21,19.7-31.19,27.68-47.26l-7.25-.95a296.46,296.46,0,0,0,31.22,76.16c1.62,2.78,5.15,2.34,6.85,0a214.28,214.28,0,0,0,31.11-61.36l-7.25,1,22.66,42.73,11.56,21.8c3.1,5.85,5.73,13,10.06,18,3.13,3.65,8,5.14,12.38,2.69,5.05-2.81,7.65-9,10.18-13.87a241.87,241.87,0,0,0,17-41.78l-7.25.95A273.14,273.14,0,0,1,415,137c1.37,4.92,9,2.83,7.66-2.11a281.66,281.66,0,0,0-28.12-66.46,4,4,0,0,0-7.25.94,230.28,230.28,0,0,1-13.66,35q-2,4.13-4.22,8.17c-1.1,2-2.39,5.39-4.36,6.82-2.83,2.06-4.15-.69-5.42-3-1.6-2.87-3.09-5.82-4.63-8.72L318,37.88c-1.67-3.15-6.26-2.16-7.25.95A208.25,208.25,0,0,1,280.47,98.3h6.85A289,289,0,0,1,256.9,24c-.81-3.17-5.71-4.05-7.25-1-7.63,15.38-16,31-26,44.92-2.37,3.3-5.64,7.06-8.65,2.37-2.14-3.33-3-7.77-4.23-11.49l-9.18-27.33c-1.48-4.4-2.93-8.81-4.44-13.19-.95-2.77-1.91-5.69-4.32-7.56-6.06-4.72-14,1.72-19.34,4.62L124.29,42.3c-4.48,2.45-.48,9.31,4,6.86Z"/></svg>