<?xml version="1.0" encoding="utf-8"?>
<!-- Generator: Adobe Illustrator 23.0.0, SVG Export Plug-In . SVG Version: 6.00 Build 0)  -->
<svg version="1.1" id="Layer_1" xmlns="http://www.w3.org/2000/svg" xmlns:xlink="http://www.w3.org/1999/xlink" x="0px" y="0px"
	 viewBox="0 0 1080 1080" style="enable-background:new 0 0 1080 1080;" xml:space="preserve">
<style type="text/css">
	.st0{fill:#FFFFFF;}
</style>
<g>
	<path class="st0" d="M910.76,435.44c-0.15,0.56-0.21,0.69-0.21,0.82c-0.15,32.43-0.3,64.85-0.41,97.28c0,0.9,0.12,2.22,0.7,2.64
		c5.09,3.76,10.31,7.36,16.35,11.63c0-3.22-0.03-5.1,0-6.98c0.28-14.9-0.17-29.86,1.06-44.68c1.43-17.32,7.16-33.4,19.35-46.41
		c6.72-7.18,14.82-11.34,24.99-8.4c9.39,2.71,13.11,10.08,14.54,18.94c3.68,22.72-0.73,43.45-15.39,61.62
		c-2.71,3.35-5.21,6.87-7.92,10.46c6.78,5.77,13.1,11.14,19.6,16.68c1.01-1.28,1.83-2.18,2.48-3.19
		c10.56-16.42,16.93-34.23,17.24-53.89c0.25-15.79-3.06-30.76-12.14-43.92c-7.27-10.54-16.53-18.16-30.4-17.75
		c-10.53,0.31-17.96,6.5-25.27,12.97c-2.27,2.02-4.38,4.22-7.51,7.25c0-5.91,0-10.48,0-15.07
		C921.84,435.44,916.4,435.44,910.76,435.44z"/>
	<path class="st0" d="M566.1,492.42c7.09-4.61,11.7-10.55,15.91-16.75c3.39-4.99,4.64-10.63,4.24-16.77
		c-1.11-16.99-21.09-33.01-36.97-27.41c-7.34,2.59-14.04,7.02-21,10.67c-1.11,0.58-2.09,1.44-3.87,2.7c0-3.75,0-6.55,0-9.16
		c-6.68,0-12.89,0-19.39,0c0,1.7,0,3.06,0,4.41c-0.05,29.16,0.03,58.31-0.28,87.46c-0.06,5.07,1.14,8.43,5.63,10.97
		c4.76,2.7,9.17,6.01,14.46,9.53c0-2.51,0-3.86,0-5.22c0-16.29,0.01-32.58,0-48.87c-0.01-19.28,7.04-35.73,20.31-49.48
		c2.78-2.88,6.36-5.25,10-6.94c3.85-1.78,8.15-1.49,11.48,1.69c3.15,3.02,5.25,6.42,4.02,11.29c-2.56,10.12-8.91,16.24-19.29,18.94
		C556.27,477.14,561.06,484.58,566.1,492.42z"/>
	<path d="M725.08,452.3c3.31-4.01,5.76-7.28,8.51-10.27c13.59-14.77,33.57-14.83,47.24-0.11c11.24,12.11,16.63,26.84,18.08,43
		c2,22.34-6.31,41.17-20.65,57.79c-1.66,1.93-2.86,2.49-4.99,0.66c-4.53-3.91-9.24-7.62-14.17-11.66c3.75-5.4,7.46-10.45,10.87-15.7
		c11.14-17.18,15.07-35.82,10.63-55.93c-0.72-3.27-2.18-6.5-3.86-9.43c-4.12-7.18-11.45-9.41-19.49-6.33
		c-16.96,6.49-33.64,30.29-33.04,47.34c0.56,15.86,0.09,31.75,0.08,47.63c0,1.34,0,2.69,0,5.22c-5.1-3.48-9.28-6.66-13.77-9.32
		c-4.61-2.72-6.09-6.22-6.06-11.67c0.22-34.49,0.01-68.99-0.08-103.48c-0.02-5.88-0.06-5.88-5.73-5.89
		c-3.29-0.01-6.58,0.12-9.85-0.07c-2.87-0.17-3.77,0.91-3.76,3.77c0.06,14.24-0.06,28.47-0.13,42.71c0,0.95-0.09,1.89-0.13,2.67
		c-6.79-2.52-13.36-5.52-20.23-7.4c-16.44-4.5-32.22-2.78-46.68,6.79c-5.34,3.53-7.52,9.76-6,15.84c1.41,5.66,5.5,8.46,11.13,6.49
		c7.33-2.55,14.29-6.13,21.52-8.97c10.89-4.29,21.68-4.07,31.84,2.14c12.26,7.49,17.24,23.96,11.46,38.03
		c-6.05,14.73-17.26,23.52-32.61,27.22c2.58,6,8.43,9.48,14.51,8.94c1-0.09,2.64,0.7,3.06,1.55c3.27,6.58,6.31,13.27,9.39,19.87
		c-9.16,7.34-21.58,5.34-27.29-4.5c-3.07-5.3-5.72-10.87-8.18-16.5c-2.56-5.87-6.1-9.31-13.1-9.58c-7.48-0.29-14.78-2.14-21.04-6.98
		c-6.47-5.01-9.39-12.48-7.36-20.33c1.52-5.89,10.13-8.9,16.53-5.58c2.28,1.18,4.52,2.71,6.28,4.55
		c10.25,10.71,22.6,11.44,35.57,7.05c6.09-2.06,11.97-5.28,17.3-8.91c4.55-3.1,5.7-9.52,3.78-13.61c-2.09-4.44-6.82-6.73-12.81-5.89
		c-2.54,0.36-5.06,1.06-7.5,1.88c-7.51,2.53-15.08,4.91-22.42,7.87c-7.99,3.21-14.87,1.37-21.55-3.28
		c-13.42-9.35-21.08-29.93-16.35-45.5c4.17-13.73,15.13-19.6,28.03-23.06c11.79-3.16,22.98-0.52,34.16,2.92
		c1.3,0.4,2.64,0.7,3.97,0.98c0.36,0.08,0.77-0.08,1.12-0.12c0-6.86,0-13.64,0-20.99c-2.08,0-3.81,0-5.54,0
		c-77.89,0-155.78,0.02-233.67-0.07c-3.61,0-5.26,0.71-4.95,4.71c0.32,4.08-0.06,8.21-0.07,12.31c-0.01,4.53,0.49,4.89,4.66,3.45
		c8.72-3,17.55-4.84,26.91-4.23c13.26,0.86,23.05,8.01,25.68,21.15c1.97,9.84,2.86,20.01,3.07,30.06
		c0.45,21.06,0.14,42.14,0.14,64.26c-6.72-4.71-15.4-5.61-17.91-15.03c-1.52,1.06-2.96,2.03-4.35,3.07
		c-15.11,11.26-34.03,12.75-49.2,3.85c-14.6-8.57-20.42-26.06-13.84-41.6c7.96-18.8,27.19-31.53,47.05-31.14
		c6.06,0.12,11.94,2.23,20.94,7.51c3.98-11.57-5.11-22.78-16.93-22.82c-11.25-0.04-21.94,2.21-31.83,7.85
		c-3.74,2.13-7.76,3.77-12.26,5.91c0.31-5.37-1.06-10.08,3.05-13.82c0.93-0.85,1.31-2.69,1.32-4.08c0.07-9.31-0.12-18.62-0.04-27.92
		c0.03-2.78-1.1-3.45-3.66-3.45c-25.05,0.06-50.1,0.03-75.15,0c-2.09,0-3.73,0.06-3.7,2.95c0.11,9.85,0.04,19.69,0.04,30.46
		c3.17-2.16,5.93-4.01,8.66-5.92c8.4-5.86,17.62-8.68,27.86-7.09c13.9,2.16,24.43,13.91,24.88,27.49
		c0.55,16.53-8.57,29.38-23.22,32.74c-1.02,0.23-2,0.64-3.4,1.1c7.56,12.41,14.94,24.52,22.5,36.93
		c-3.99,4.08-8.05,8.22-12.58,12.84c-2.98-4.51-5.72-8.52-8.32-12.61c-8.72-13.73-17.36-27.52-26.11-41.23
		c-1.42-2.23-1.96-4.14-0.81-6.79c2.09-4.84,3.7-9.9,5.28-14.24c5.19,0.31,9.81,1.09,14.35,0.76c12.48-0.9,21.2-15.53,16.49-27.17
		c-1.45-3.59-6.51-6.29-11.47-5.28c-3.23,0.66-6.85,1.84-9.2,3.98c-14.94,13.62-25.19,29.71-25.15,50.83
		c0.03,15.6-0.01,31.21-0.03,46.81c0,1.19-0.11,2.37-0.23,4.6c-6.02-3.63-11.55-6.77-16.82-10.32c-0.93-0.63-1.03-2.91-1.03-4.43
		c-0.06-31.89-0.04-63.79-0.04-95.68c0-6.68,0-13.37,0-20.35c-1.74-0.15-2.91-0.33-4.09-0.33c-22.45-0.02-44.9,0.05-67.35-0.09
		c-3.53-0.02-4.94,0.88-4.71,4.58c0.26,4.22-0.06,8.48-0.06,12.72c0,4.23,0.53,4.59,4.51,3.23c8.18-2.81,16.46-4.75,25.25-4.36
		c16.03,0.72,25.94,8.71,28.38,24.63c1.54,10.08,2.18,20.37,2.37,30.58c0.35,19.16,0.09,38.33,0.07,57.49c0,0.65-0.12,1.3-0.26,2.79
		c-6.55-4.5-15-5.62-17.82-14.89c-1.48,1-3.1,2.06-4.67,3.18c-13.1,9.39-27.37,12.27-42.63,6.63
		c-20.95-7.75-28.95-30.18-17.59-49.35c9.97-16.82,24.58-26.75,44.64-26.13c5.74,0.18,11.41,3.19,17.05,5.06
		c1.48,0.49,2.75,1.59,4.21,2.47c3.29-15.8-8.37-24.64-23.75-23c-11.33,1.21-21.33,5.39-31.15,10.6c-1.88,1-3.9,1.73-6.29,2.77
		c0.25-5.21-1.38-10.14,3.14-13.85c0.69-0.57,0.96-1.97,0.97-2.99c0.07-10.51,0.04-21.03,0.04-31.81c-1.89-0.12-3.21-0.27-4.53-0.27
		c-25.05-0.02-50.1,0.04-75.15-0.11c-3.6-0.02-4.84,0.98-4.66,4.6c0.26,5.43,0.07,10.89,0.07,17.07c2.94-0.83,5.52-1.44,8.04-2.28
		c9.09-3.02,18.28-4.16,27.81-2.41c12.35,2.27,18.97,10.25,21.48,21.86c1.44,6.64,2.41,13.52,2.51,20.3
		c0.33,22.72,0.17,45.44,0.18,68.17c0,0.77-0.15,1.54-0.24,2.35c-8.81-2.55-15.05-7.05-17.67-12.55c-4.77,2.84-9.29,6.34-14.38,8.4
		c-15.49,6.24-30.48,5.77-43.91-5.38c-10.98-9.12-14.59-22.92-9.78-36.32c6.87-19.14,26.85-33.1,47.1-32.89
		c6.9,0.07,13.08,2.51,18.93,5.96c0.9,0.53,1.81,1.06,2.8,1.63c3.18-14.88-7.64-23.85-19.66-22.98c-10.22,0.74-19.97,2.68-29,7.75
		c-3.77,2.12-7.78,3.85-12.25,6.03c-0.03-5.19-1.41-9.74,2.59-13.55c0.91-0.87,1.26-2.71,1.27-4.11c0.06-9.31-0.15-18.62-0.04-27.92
		c0.04-3-1.15-3.73-3.88-3.66c-5.3,0.15-10.62,0.04-16.25,0.04c0-5.74,0-10.86,0-16.58c69.04,0,138.07,0,207.68,0
		c0.36-16.89-1.5-32.87-5.41-48.69c-3.94-15.93-11.9-30.06-20.01-45.12c7.14,0,13.49-0.2,19.81,0.17c1.23,0.07,2.55,2.24,3.44,3.68
		c8.16,13.17,13.27,27.6,15.78,42.74c2.27,13.71,3.32,27.62,4.69,41.47c0.55,5.53,0.28,5.62,5.84,5.63
		c89.11,0.03,178.23,0.05,267.34,0.05c31.89,0,63.79-0.02,95.68-0.06c5.49-0.01,5.5-0.1,5.34-5.73
		c-0.76-26.41-7.61-50.94-22.5-72.99c-1.38-2.04-2.8-4.05-4.31-5.99c-1.42-1.82-2.98-3.53-5.28-6.24c7.24,0,13.59-0.41,19.83,0.23
		c2.1,0.22,4.21,2.87,5.83,4.81c8.99,10.78,14.44,23.43,18.61,36.66c4.62,14.64,7.63,29.6,7.86,45.02c0.05,3.08,1.12,4.39,4.35,4.29
		c5.88-0.17,11.77,0.01,17.66,0.01c85.28,0,170.56,0,255.84,0c2.43,0,4.86,0,8.02,0c0,4.89,0.16,9.37-0.13,13.82
		c-0.06,0.95-1.6,2.36-2.66,2.58c-2.11,0.44-4.35,0.22-6.54,0.23c-52.98,0.01-105.95,0.02-158.93,0.02c-5.51,0-5.53-0.01-5.74,5.45
		c-0.13,3.56-0.23,7.11-0.25,10.67c-0.04,5.68,0.15,5.46,5.51,4.19c7.38-1.76,14.89-3.79,22.39-4c18.13-0.52,28.38,8.51,30.88,26.47
		c1.07,7.69,1.59,15.51,1.67,23.28c0.22,21.48,0.08,42.97,0.08,64.47c-6.94-0.91-16.01-8-17.68-13.98c-2.99,2.04-5.8,4.16-8.8,5.98
		c-17.31,10.47-41.64,9.3-54.53-7.59c-7.5-9.84-9.01-20.56-4.58-32.05c6.39-16.58,25.22-33.41,47.62-31.85
		c5.9,0.41,11.62,3.43,17.39,5.37c1.23,0.41,2.3,1.34,3.49,2.06c3.42-13.96-6.74-23.4-19.07-23.04c-12.2,0.35-23.3,3.9-33.8,9.88
		c-2.45,1.4-5.11,2.42-8.09,3.81c-0.08-5.29-1.23-10.11,3-13.87c0.63-0.56,1.1-1.67,1.1-2.53c-0.08-10.53-0.26-21.06-0.43-31.6
		c0-0.23-0.26-0.46-0.64-1.11c-1.37,0-2.99,0-4.6,0c-29.16,0-58.32,0.06-87.47-0.06c-3.33-0.01-4.61,0.79-4.55,4.29
		C725.19,429.32,725.08,440.23,725.08,452.3z M423.73,527.45c0.03,0.15,0.06,0.3,0.09,0.45c4.8-0.93,9.73-1.44,14.38-2.86
		c12.8-3.91,23.29-11.19,30.72-22.54c2.12-3.23,2.7-6.64-0.47-9.18c-7.34-5.89-15.88-9.37-25.32-8.72
		c-14.92,1.03-25.01,9.87-32.58,22.03c-7.94,12.75-2.55,18.67,9.91,20.65C421.53,527.46,422.64,527.4,423.73,527.45z M232.33,527.75
		c3.84-0.5,6.57-0.7,9.23-1.24c15.7-3.17,28.31-11.06,37.08-24.64c2.16-3.34,1.79-6.72-1.4-9.13c-6.92-5.22-14.92-8.57-23.5-8.25
		c-16.09,0.61-31.67,13.28-36.87,28.78c-1.68,5.01,0.12,9.75,5.07,11.72C225.56,526.44,229.5,527.03,232.33,527.75z M833.12,528
		c0.05-0.18,0.1-0.36,0.15-0.54c1.37-0.06,2.74-0.06,4.09-0.21c1.35-0.15,2.69-0.42,4.02-0.7c15.68-3.25,28.3-11.08,37.08-24.72
		c2.26-3.51,1.68-6.67-1.44-9.01c-7.4-5.55-15.9-9.34-25.08-8.29c-17.55,2.01-28.7,12.87-35.22,28.77
		c-2.02,4.92,0.06,9.73,5.04,11.7C825.37,526.44,829.32,527.03,833.12,528z M133.81,527.75c3.84-0.49,6.57-0.67,9.24-1.2
		c15.86-3.13,28.49-11.21,37.46-24.77c2.13-3.22,1.81-6.46-1.18-8.77c-6.98-5.39-15.2-9.03-23.81-8.51
		c-18.24,1.1-29.77,12.09-36.61,28.4c-2.22,5.29-0.29,9.95,4.96,12.11C127.33,526.42,131.12,527.03,133.81,527.75z"/>
	<path d="M910.76,435.44c5.65,0,11.08,0,17.08,0c0,4.59,0,9.16,0,15.07c3.13-3.03,5.23-5.24,7.51-7.25
		c7.3-6.47,14.73-12.66,25.27-12.97c13.87-0.41,23.13,7.21,30.4,17.75c9.08,13.16,12.39,28.13,12.14,43.92
		c-0.31,19.66-6.68,37.47-17.24,53.89c-0.65,1.01-1.48,1.91-2.48,3.19c-6.51-5.54-12.83-10.91-19.6-16.68
		c2.71-3.59,5.21-7.1,7.92-10.46c14.66-18.17,19.06-38.9,15.39-61.62c-1.43-8.86-5.15-16.23-14.54-18.94
		c-10.17-2.94-18.27,1.23-24.99,8.4c-12.19,13.01-17.91,29.08-19.35,46.41c-1.23,14.82-0.78,29.78-1.06,44.68
		c-0.04,1.88,0,3.76,0,6.98c-6.05-4.26-11.26-7.87-16.35-11.63c-0.58-0.43-0.7-1.74-0.7-2.64c0.11-32.43,0.26-64.85,0.41-97.28
		C910.54,436.13,910.61,436,910.76,435.44z"/>
	<path d="M566.1,492.42c-5.05-7.84-9.83-15.28-14.75-22.92c10.37-2.7,16.72-8.82,19.29-18.94c1.23-4.86-0.86-8.27-4.02-11.29
		c-3.33-3.18-7.64-3.47-11.48-1.69c-3.64,1.69-7.22,4.06-10,6.94c-13.27,13.75-20.32,30.2-20.31,49.48c0.01,16.29,0,32.58,0,48.87
		c0,1.36,0,2.71,0,5.22c-5.28-3.52-9.7-6.83-14.46-9.53c-4.49-2.54-5.69-5.9-5.63-10.97c0.32-29.15,0.23-58.31,0.28-87.46
		c0-1.35,0-2.71,0-4.41c6.5,0,12.71,0,19.39,0c0,2.61,0,5.4,0,9.16c1.78-1.26,2.76-2.11,3.87-2.7c6.96-3.65,13.66-8.08,21-10.67
		c15.88-5.6,35.86,10.41,36.97,27.41c0.4,6.14-0.85,11.78-4.24,16.77C577.8,481.87,573.2,487.81,566.1,492.42z"/>
</g>
</svg>
